<svg width="355" height="332" viewBox="0 0 355 332" fill="none" xmlns="http://www.w3.org/2000/svg">
<circle cx="99.5" cy="94.3553" r="72.5" fill="#121212"/>
<circle cx="139" cy="193" r="100" fill="#171717"/>
<path d="M208.58 281.766C192.32 278.488 173.459 271.101 166.06 267.818C158.426 275.975 135.982 280.164 125.715 281.238C177.889 300.317 292.024 335.683 331.172 324.511C380.107 310.547 328.726 299.901 320.136 300.445C311.547 300.989 228.904 285.862 208.58 281.766Z" fill="#171717"/>
<path d="M21.5513 36.7018C20.2722 32.9453 23.6687 29.2672 27.515 30.2439L58.6546 38.1507C62.3281 39.0834 63.6687 43.6047 61.0974 46.3891L40.3139 68.8951C37.7426 71.6795 33.1291 70.7024 31.9074 67.1147L21.5513 36.7018Z" fill="#121212"/>
<path d="M163.69 25.0151C164.254 21.0702 160.202 18.083 156.601 19.7883L128.532 33.0785C125.114 34.6969 124.661 39.3777 127.705 41.622L151.378 59.075C154.422 61.3192 158.759 59.5021 159.294 55.7582L163.69 25.0151Z" fill="#121212"/>
</svg>
