<svg width="361" height="289" viewBox="0 0 361 289" fill="none" xmlns="http://www.w3.org/2000/svg">
<circle cx="182" cy="152.691" r="136" fill="black"/>
<path d="M184.637 186.035C183.035 188.059 179.965 188.059 178.363 186.035L170.607 176.232C168.532 173.609 170.4 169.75 173.744 169.75H189.256C192.6 169.75 194.468 173.609 192.393 176.232L184.637 186.035Z" fill="#BC6886"/>
<path d="M29.5576 41.8867C28.6717 39.8022 30.3267 37.5253 32.5829 37.7249L99.6186 43.6526C101.941 43.858 103.152 46.5187 101.781 48.4049L61.0697 104.412C59.6987 106.298 56.7942 105.968 55.8821 103.822L29.5576 41.8867Z" fill="black"/>
<path d="M47.3568 66.0379C46.4708 63.9534 48.1259 61.6765 50.382 61.876L78.342 64.3484C80.6647 64.5538 81.8754 67.2146 80.5044 69.1007L63.5241 92.4608C62.1531 94.347 59.2486 94.0164 58.3365 91.8704L47.3568 66.0379Z" fill="#BC6886"/>
<path d="M47.3568 66.0379C46.4708 63.9534 48.1259 61.6765 50.382 61.876L78.342 64.3484C80.6647 64.5538 81.8754 67.2146 80.5044 69.1007L63.5241 92.4608C62.1531 94.347 59.2486 94.0164 58.3365 91.8704L47.3568 66.0379Z" fill="#BC6886"/>
<path d="M331.911 41.8867C332.797 39.8022 331.142 37.5253 328.885 37.7249L261.85 43.6526C259.527 43.858 258.316 46.5187 259.687 48.4049L300.399 104.412C301.77 106.298 304.674 105.968 305.586 103.822L331.911 41.8867Z" fill="black"/>
<path d="M312.033 60.0771C312.919 57.9927 311.264 55.7158 309.008 55.9153L280.967 58.3949C278.644 58.6003 277.433 61.261 278.804 63.1472L295.834 86.5753C297.205 88.4615 300.11 88.1309 301.022 85.9849L312.033 60.0771Z" fill="#BC6886"/>
<path d="M312.033 60.0771C312.919 57.9927 311.264 55.7158 309.008 55.9153L280.967 58.3949C278.644 58.6003 277.433 61.261 278.804 63.1472L295.834 86.5753C297.205 88.4615 300.11 88.1309 301.022 85.9849L312.033 60.0771Z" fill="#BC6886"/>
<circle cx="124.874" cy="143.74" r="35.7396" fill="#E4CC30"/>
<ellipse cx="124.409" cy="143.74" rx="25.9925" ry="25.5283" fill="#4B4416"/>
<ellipse cx="140.655" cy="127.494" rx="6.96227" ry="7.42642" fill="white"/>
<circle cx="238.126" cy="143.74" r="35.7396" fill="#E4CC30"/>
<ellipse cx="238.591" cy="143.74" rx="25.9925" ry="25.5283" fill="#4B4416"/>
<ellipse cx="257.621" cy="127.494" rx="6.96227" ry="7.42642" fill="white"/>
</svg>
