<svg width="229" height="515" viewBox="0 0 229 515" fill="none" xmlns="http://www.w3.org/2000/svg">
<circle cx="119.5" cy="232.5" r="109.5" fill="#121212"/>
<path d="M104.773 352.792C104.117 334.622 99.4782 312.908 97.2408 304.322C107.421 297.514 115.939 273.982 118.926 263.067C130.293 322.891 148.266 452.63 129.226 492.99C105.427 543.44 103.041 485.971 105.156 476.777C107.27 467.583 105.593 375.504 104.773 352.792Z" fill="#121212"/>
<circle cx="75.1277" cy="331.855" r="10.6517" transform="rotate(5.63936 75.1277 331.855)" fill="#171717"/>
<circle cx="105.058" cy="334.81" r="10.6517" transform="rotate(5.63936 105.058 334.81)" fill="#171717"/>
<circle cx="90.0928" cy="333.333" r="10.6517" transform="rotate(5.63936 90.0928 333.333)" fill="#171717"/>
<circle cx="10.2069" cy="10.2069" r="10.2069" transform="matrix(-0.99516 0.0982666 0.0982666 0.99516 159.58 321.304)" fill="#171717"/>
<circle cx="10.2069" cy="10.2069" r="10.2069" transform="matrix(-0.99516 0.0982666 0.0982666 0.99516 130.9 324.136)" fill="#171717"/>
<circle cx="10.2069" cy="10.2069" r="10.2069" transform="matrix(-0.99516 0.0982666 0.0982666 0.99516 145.24 322.72)" fill="#171717"/>
<circle cx="110.219" cy="94.1453" r="83.8545" fill="#121212"/>
<path d="M113.047 113.185C111.446 115.209 108.375 115.209 106.773 113.185L105.16 111.146C103.085 108.523 104.953 104.664 108.297 104.664H111.523C114.867 104.664 116.735 108.523 114.66 111.146L113.047 113.185Z" fill="#BC6886"/>
<path d="M18.6664 27.5909C17.7805 25.5065 19.4355 23.2296 21.6916 23.4291L59.0908 26.7362C61.4136 26.9416 62.6243 29.6023 61.2532 31.4884L38.5404 62.7349C37.1694 64.621 34.265 64.2904 33.3528 62.1445L18.6664 27.5909Z" fill="#121212"/>
<path d="M30.2187 38.9693C29.3327 36.8848 30.9877 34.6079 33.2439 34.8074L46.5499 35.984C48.8726 36.1894 50.0833 38.8502 48.7123 40.7363L40.6315 51.8533C39.2604 53.7394 36.356 53.4088 35.4439 51.2628L30.2187 38.9693Z" fill="#BC6886"/>
<path d="M30.2187 38.9693C29.3327 36.8848 30.9877 34.6079 33.2439 34.8074L46.5499 35.984C48.8726 36.1894 50.0833 38.8502 48.7123 40.7363L40.6315 51.8533C39.2604 53.7394 36.356 53.4088 35.4439 51.2628L30.2187 38.9693Z" fill="#BC6886"/>
<path d="M201.9 27.5909C202.786 25.5065 201.131 23.2296 198.875 23.4291L161.476 26.7362C159.153 26.9416 157.942 29.6023 159.313 31.4884L182.026 62.7349C183.397 64.621 186.301 64.2904 187.214 62.1445L201.9 27.5909Z" fill="#121212"/>
<path d="M189.644 38.8066C190.53 36.7222 188.875 34.4453 186.619 34.6448L173.263 35.8258C170.94 36.0312 169.729 38.692 171.101 40.5781L179.212 51.737C180.583 53.6231 183.487 53.2926 184.399 51.1466L189.644 38.8066Z" fill="#BC6886"/>
<path d="M189.644 38.8066C190.53 36.7222 188.875 34.4453 186.619 34.6448L173.263 35.8258C170.94 36.0312 169.729 38.692 171.101 40.5781L179.212 51.737C180.583 53.6231 183.487 53.2926 184.399 51.1466L189.644 38.8066Z" fill="#BC6886"/>
<line x1="49.702" y1="86.8572" x2="91.7565" y2="98.2909" stroke="#E4CC30" stroke-width="4"/>
<line y1="-2" x2="43.5811" y2="-2" transform="matrix(-0.964972 0.262354 0.262354 0.964972 169.537 88.7871)" stroke="#E4CC30" stroke-width="4"/>
</svg>
