<svg width="228" height="557" viewBox="0 0 228 557" fill="none" xmlns="http://www.w3.org/2000/svg">
<circle cx="118.5" cy="274.5" r="109.5" fill="#121212"/>
<path d="M103.773 394.792C103.117 376.622 98.4782 354.908 96.2408 346.322C106.421 339.514 114.939 315.982 117.926 305.066C129.293 364.891 147.266 494.63 128.226 534.99C104.427 585.439 102.041 527.971 104.156 518.777C106.27 509.583 104.593 417.504 103.773 394.792Z" fill="#121212"/>
<circle cx="108.201" cy="134.828" r="83.5399" fill="#171717"/>
<path d="M111.03 153.781C109.429 155.805 106.358 155.805 104.757 153.781L103.18 151.788C101.106 149.166 102.973 145.307 106.317 145.307H109.47C112.814 145.307 114.681 149.166 112.606 151.788L111.03 153.781Z" fill="#BC6886"/>
<path d="M47.2174 40.813C47.4983 38.5655 50.0731 37.428 51.9237 38.7337L87.8745 64.0988C89.7798 65.443 89.4902 68.3519 87.3573 69.2942L45.9497 87.5876C43.8168 88.5299 41.4714 86.7852 41.7606 84.4714L47.2174 40.813Z" fill="#171717"/>
<path d="M53.6978 55.3175C53.9787 53.07 56.5535 51.9325 58.4042 53.2383L71.926 62.7786C73.8313 64.1229 73.5418 67.0317 71.4089 67.974L55.8346 74.8546C53.7016 75.7969 51.3562 74.0522 51.6454 71.7384L53.6978 55.3175Z" fill="#BC6886"/>
<path d="M53.6978 55.3175C53.9787 53.07 56.5535 51.9325 58.4042 53.2383L71.926 62.7786C73.8313 64.1229 73.5418 67.0317 71.4089 67.974L55.8346 74.8546C53.7016 75.7969 51.3562 74.0522 51.6454 71.7384L53.6978 55.3175Z" fill="#BC6886"/>
<path d="M168.041 38.3414C167.744 36.0855 165.188 34.9308 163.359 36.2261L126.808 62.0998C124.916 63.4389 125.217 66.3728 127.345 67.3342L169.816 86.5224C171.944 87.4837 174.267 85.7355 173.961 83.4033L168.041 38.3414Z" fill="#171717"/>
<path d="M161.562 53.174C161.265 50.9181 158.71 49.7634 156.88 51.0586L143.02 60.8698C141.128 62.2089 141.43 65.1428 143.557 66.1042L159.662 73.3802C161.79 74.3416 164.113 72.5933 163.807 70.2611L161.562 53.174Z" fill="#BC6886"/>
<path d="M161.562 53.174C161.265 50.9181 158.71 49.7634 156.88 51.0586L143.02 60.8698C141.128 62.2089 141.43 65.1428 143.557 66.1042L159.662 73.3802C161.79 74.3416 164.113 72.5933 163.807 70.2611L161.562 53.174Z" fill="#BC6886"/>
<circle cx="73.1101" cy="129.329" r="21.9536" fill="#E4CC30"/>
<ellipse cx="72.8249" cy="129.329" rx="15.9662" ry="15.6811" fill="#4B4416"/>
<ellipse cx="82.804" cy="119.35" rx="4.27667" ry="4.56178" fill="white"/>
<circle cx="142.677" cy="129.329" r="21.9536" fill="#E4CC30"/>
<ellipse cx="142.962" cy="129.329" rx="15.9662" ry="15.6811" fill="#4B4416"/>
<ellipse cx="154.652" cy="119.35" rx="4.27667" ry="4.56178" fill="white"/>
<circle cx="74.1277" cy="373.855" r="10.6517" transform="rotate(5.63936 74.1277 373.855)" fill="#171717"/>
<circle cx="104.058" cy="376.81" r="10.6517" transform="rotate(5.63936 104.058 376.81)" fill="#171717"/>
<circle cx="89.0928" cy="375.333" r="10.6517" transform="rotate(5.63936 89.0928 375.333)" fill="#171717"/>
<circle cx="10.2069" cy="10.2069" r="10.2069" transform="matrix(-0.99516 0.0982666 0.0982666 0.99516 158.58 363.304)" fill="#171717"/>
<circle cx="10.2069" cy="10.2069" r="10.2069" transform="matrix(-0.99516 0.0982666 0.0982666 0.99516 129.9 366.136)" fill="#171717"/>
<circle cx="10.2069" cy="10.2069" r="10.2069" transform="matrix(-0.99516 0.0982666 0.0982666 0.99516 144.24 364.72)" fill="#171717"/>
</svg>
